Coordinates
version=1
nRows=11
nColumns=40
inDegrees=yes

Units are S.I. units (second, meters, Newtons, ...)
If the header above contains a line with 'inDegrees', this indicates whether rotational values are in degrees (yes) or radians (no).

endheader
time	pelvis_tilt	pelvis_list	pelvis_rotation	pelvis_tx	pelvis_ty	pelvis_tz	hip_flexion_r	hip_adduction_r	hip_rotation_r	knee_angle_r	knee_angle_r_beta	ankle_angle_r	subtalar_angle_r	mtp_angle_r	hip_flexion_l	hip_adduction_l	hip_rotation_l	knee_angle_l	knee_angle_l_beta	ankle_angle_l	subtalar_angle_l	mtp_angle_l	lumbar_extension	lumbar_bending	lumbar_rotation	arm_flex_r	arm_add_r	arm_rot_r	elbow_flex_r	pro_sup_r	wrist_flex_r	wrist_dev_r	arm_flex_l	arm_add_l	arm_rot_l	elbow_flex_l	pro_sup_l	wrist_flex_l	wrist_dev_l
      7.88300000	     -0.36815914	      1.24985398	      5.71970279	      0.07164866	      1.31379016	     -0.00755592	     33.20487570	     -6.98226366	    -11.34519754	     74.07427022	      1.29283991	     -1.74443500	    -14.48743391	      0.00000000	     57.67753405	     -7.20925883	     -3.05856076	     81.40189820	      1.42073114	      5.56019510	    -17.23334972	      0.00000000	    -55.29453152	     -1.72135760	     -4.68095969	     53.81259222	     11.06711784	    -34.00582840	     34.30021828	     68.72572781	      0.00000000	      0.00000000	     58.35973419	     17.33098351	    -41.60325073	     34.19982005	      2.73537132	      0.00000000	      0.00000000
      7.90000000	     -0.09720275	      0.14408297	      5.10999507	      0.07184239	      1.31416765	     -0.00740627	     35.70356397	     -6.19705791	    -11.22461019	     79.89095943	      1.39436028	     -1.38629489	    -14.23033874	      0.00000000	     54.32456899	     -7.99144174	     -2.62979205	     75.29192218	      1.31409194	      4.65188583	    -17.33700076	      0.00000000	    -55.37643276	     -1.27409022	     -3.58364699	     54.02965704	     11.30494310	    -33.97171236	     34.17258416	     68.66969925	      0.00000000	      0.00000000	     58.27053163	     17.19770225	    -41.94559933	     34.39040320	      3.25715192	      0.00000000	      0.00000000
      7.91700000	     -0.04875543	     -0.59924812	      4.10367383	      0.07168350	      1.31408886	     -0.00691234	     38.92513018	     -5.49795123	    -10.37602647	     85.94482830	      1.50002023	     -1.18663614	    -13.45025480	      0.00000000	     50.64196496	     -8.68016405	     -2.89729821	     69.06012817	      1.20532662	      3.61463776	    -18.13644026	      0.00000000	    -55.21124996	     -1.35893176	     -2.61039274	     54.13891634	     11.64719615	    -33.95242037	     34.13559220	     68.75119452	      0.00000000	      0.00000000	     58.09764735	     16.92656551	    -42.00340748	     34.56476818	      2.83625382	      0.00000000	      0.00000000
      7.93300000	     -0.07177872	     -1.69003392	      3.08611623	      0.07133350	      1.31383346	     -0.00620064	     42.43950751	     -4.42816814	     -9.76612527	     91.79607454	      1.60214374	     -1.05164808	    -12.63310175	      0.00000000	     46.77495852	     -9.59712665	     -2.94742191	     62.73239197	      1.09488679	      2.40467750	    -18.05131803	      0.00000000	    -54.91660784	     -1.19833370	     -1.37815000	     54.30880300	     11.90370145	    -33.76050542	     33.85963869	     68.97320376	      0.00000000	      0.00000000	     57.89435309	     16.62662975	    -42.33385079	     34.69009412	      3.08331754	      0.00000000	      0.00000000
      7.95000000	     -0.23094556	     -2.59076064	      2.02717363	      0.07094830	      1.31337564	     -0.00533313	     46.03514307	     -3.48479658	     -9.22251392	     96.91556982	      1.69149579	     -0.58456120	    -12.35007196	      0.00000000	     43.13710066	    -10.37582843	     -3.30605963	     57.17291295	      0.99785557	      0.79786873	    -18.43306496	      0.00000000	    -54.56273077	     -1.18742151	     -0.22750785	     54.40573564	     12.13454628	    -33.55440688	     33.74631890	     69.28221144	      0.00000000	      0.00000000	     57.63653252	     16.31965196	    -42.26730867	     34.84287424	      2.98288541	      0.00000000	      0.00000000
      7.96700000	     -0.51497693	     -3.29156056	      0.92430009	      0.07059628	      1.31281993	     -0.00425917	     49.68206692	     -2.72236514	     -8.84686720	    101.26654266	      1.76743459	      0.58410748	    -13.15271474	      0.00000000	     39.81595314	    -11.04709651	     -3.99507402	     52.76872542	      0.92098800	     -0.88702058	    -19.03562096	      0.00000000	    -54.16500177	     -1.32227132	      0.79975010	     54.50773110	     12.27807536	    -33.31649944	     33.58220244	     69.52254200	      0.00000000	      0.00000000	     57.35857749	     16.04750645	    -42.12792287	     34.99002544	      2.97141616	      0.00000000	      0.00000000
      7.98300000	     -0.92846174	     -3.59496315	     -0.41473531	      0.07011885	      1.31208919	     -0.00295999	     53.56746965	     -2.09937511	     -8.19974401	    104.99859283	      1.83257115	      1.81722763	    -14.59007365	      0.00000000	     36.63381193	    -11.46786203	     -5.34952683	     49.21028125	      0.85888143	     -2.42212963	    -20.07074051	      0.00000000	    -53.70227674	     -1.89816092	      1.67335515	     54.60986601	     12.35880506	    -33.00055409	     33.49279730	     69.84087408	      0.00000000	      0.00000000	     57.09664541	     15.79916617	    -41.78147114	     35.11014306	      2.83872417	      0.00000000	      0.00000000
      8.00000000	     -1.32446717	     -3.97204602	     -1.39435242	      0.06993370	      1.31127727	     -0.00210689	     56.99947140	     -1.55231055	     -7.95302205	    107.57209873	      1.87748731	      3.64949711	    -16.01181958	      0.00000000	     34.02382807	    -11.79567583	     -6.43181643	     46.75895068	      0.81609764	     -3.80025217	    -20.47844352	      0.00000000	    -53.27800861	     -2.18240297	      2.45002409	     54.71292142	     12.36032514	    -32.69621288	     33.30783854	     70.02090599	      0.00000000	      0.00000000	     56.86320878	     15.61466968	    -41.62396251	     35.22203368	      2.84534897	      0.00000000	      0.00000000
      8.01700000	     -1.74591599	     -4.32025914	     -2.31281289	      0.06979028	      1.31044459	     -0.00139501	     60.18899034	     -0.80706161	     -7.73847167	    108.91355419	      1.90090012	      5.27492995	    -17.58314176	      0.00000000	     31.96680620	    -12.07149050	     -7.43408485	     45.46934787	      0.79358983	     -4.73293153	    -20.99027585	      0.00000000	    -52.89915820	     -2.52850943	      3.25815210	     54.83016710	     12.19697225	    -32.27474276	     33.17210314	     70.17962679	      0.00000000	      0.00000000	     56.75726120	     15.52368227	    -41.51418585	     35.27902325	      2.76709219	      0.00000000	      0.00000000
      8.03300000	     -2.06280858	     -4.66867628	     -2.70750609	      0.06992316	      1.30989395	     -0.00143674	     62.77803786	     -0.40744058	     -7.82606586	    109.14208541	      1.90488874	      7.52516573	    -18.90962014	      0.00000000	     30.39099328	    -12.10176640	     -7.84138699	     45.31199423	      0.79084349	     -5.23298381	    -21.01753306	      0.00000000	    -52.69142346	     -2.52438175	      3.79432576	     54.98461446	     12.02063751	    -32.04839900	     32.99401762	     70.17802183	      0.00000000	      0.00000000	     56.72408894	     15.48252045	    -41.57618825	     35.29868798	      2.98153691	      0.00000000	      0.00000000
      8.05000000	     -2.36910093	     -4.88763147	     -3.40217876	      0.07013117	      1.30928614	     -0.00091557	     64.91738562	      0.33422284	     -7.67529527	    108.31066541	      1.89037773	      8.91947447	    -20.81908854	      0.00000000	     29.39814079	    -12.38232724	     -8.82475671	     46.43492624	      0.81044235	     -5.27097388	    -21.01268701	      0.00000000	    -52.47762651	     -2.89850299	      4.43460257	     55.05516155	     11.70892236	    -31.43785506	     32.87750119	     70.20231971	      0.00000000	      0.00000000	     56.74566356	     15.48021039	    -41.55834194	     35.30023397	      2.80501174	      0.00000000	      0.00000000
